<?xml version="1.0" encoding="UTF-8" standalone="no"?>
<svg
   xmlns:dc="http://purl.org/dc/elements/1.1/"
   xmlns:cc="http://creativecommons.org/ns#"
   xmlns:rdf="http://www.w3.org/1999/02/22-rdf-syntax-ns#"
   xmlns:svg="http://www.w3.org/2000/svg"
   xmlns="http://www.w3.org/2000/svg"
   version="1.1"
   id="Layer_1"
   x="0px"
   y="0px"
   width="300px"
   height="100px"
   viewBox="0 0 300 100"
   enable-background="new 0 0 300 100"
   xml:space="preserve"><metadata
   id="metadata41"><rdf:RDF><cc:Work
       rdf:about=""><dc:format>image/svg+xml</dc:format><dc:type
         rdf:resource="http://purl.org/dc/dcmitype/StillImage" /><dc:title>EF_WHT_OR_svg</dc:title></cc:Work></rdf:RDF></metadata><defs
   id="defs39" />
<title
   id="title26">EF_WHT_OR_svg</title>
<text
   xml:space="preserve"
   style="font-style:normal;font-variant:normal;font-weight:bold;font-stretch:normal;font-size:42.9329px;line-height:36.5904px;font-family:Arial;-inkscape-font-specification:'Arial, Bold';font-variant-ligatures:normal;font-variant-caps:normal;font-variant-numeric:normal;font-variant-east-asian:normal;letter-spacing:0px;word-spacing:0px;fill:#b3b3b3;fill-opacity:1;stroke:none;stroke-width:1.60997"
   x="3.5638885"
   y="74.822464"
   id="text48"
   transform="scale(0.75646559,1.3219372)"><tspan
     id="tspan46"
     x="3.5638885"
     y="74.822464"
     style="fill:#b3b3b3;fill-opacity:1;stroke-width:1.60997">A U T O M O T I V E</tspan></text>
<g
   style="fill:#f69221;fill-opacity:1"
   transform="rotate(90,119.28994,82.407432)"
   id="g60"><path
     style="fill:#f69221;fill-opacity:1"
     id="XMLID_16_"
     class="st2"
     d="m 48.85,189.2 c 0,-6.19 3.16,-9.28 9.48,-9.28 0.84,0 1.68,0.06 2.52,0.17 v 13.54 c 2.88,0 4.31,-2.11 4.31,-6.33 0,-2.06 -0.19,-4.12 -0.58,-6.18 h 4.08 c 0.39,1.8 0.58,3.99 0.58,6.56 0,7.39 -3.48,11.09 -10.43,11.09 -6.64,0.01 -9.96,-3.18 -9.96,-9.57 z m 8.43,4.43 v -8.7 h -0.16 c -2.82,0 -4.23,1.42 -4.23,4.27 0,2.72 1.47,4.2 4.39,4.43 z" /><path
     style="fill:#f69221;fill-opacity:1"
     id="XMLID_14_"
     class="st2"
     d="m 68.66,161 c 0.39,1.68 0.58,3.43 0.58,5.24 0,7.25 -3.53,10.88 -10.59,10.88 -6.54,0 -9.81,-3.62 -9.81,-10.88 0,-1.81 0.19,-3.56 0.58,-5.24 h 4.08 c -0.39,1.68 -0.58,3.3 -0.58,4.86 0,4.08 1.91,6.12 5.73,6.12 4.34,0 6.51,-2.04 6.51,-6.12 0,-1.55 -0.19,-3.17 -0.58,-4.86 z" /><path
     style="fill:#f69221;fill-opacity:1"
     id="XMLID_12_"
     class="st2"
     d="m 41.47,152.46 h 27.77 v 5.15 H 41.47 Z" /><path
     style="fill:#f69221;fill-opacity:1"
     id="XMLID_9_"
     class="st2"
     d="m 41.47,142.45 h 4.08 v 5.15 h -4.08 z m 7.38,0 h 20.39 v 5.15 H 48.85 Z" /><path
     style="fill:#f69221;fill-opacity:1"
     id="XMLID_6_"
     class="st2"
     d="m 49.69,137.6 c -0.56,-2.71 -0.83,-5.57 -0.83,-8.58 0,-6.93 3.23,-10.39 9.69,-10.39 7.13,0 10.7,3.22 10.7,9.67 0,1.37 -0.32,2.76 -0.97,4.16 h 8.35 v 5.15 H 49.69 Z m 14.23,-5.15 c 0.7,-1.28 1.05,-2.66 1.05,-4.14 0,-3.07 -2.16,-4.6 -6.47,-4.6 -3.66,0 -5.49,1.7 -5.49,5.09 0,1.46 0.09,2.68 0.27,3.65 z" /><path
     style="fill:#f69221;fill-opacity:1"
     id="XMLID_4_"
     class="st2"
     d="M 68.27,114.74 H 64 c 0.91,-2.26 1.36,-4.88 1.36,-7.85 0,-2.22 -0.71,-3.32 -2.14,-3.32 -1.36,0 -2.04,0.74 -2.04,2.23 v 3.69 c 0,4.14 -2.04,6.22 -6.12,6.22 -4.27,0 -6.41,-3.02 -6.41,-9.07 0,-2.56 0.39,-4.98 1.17,-7.25 h 4.27 c -0.91,2.27 -1.36,4.73 -1.36,7.38 0,2.78 0.71,4.18 2.14,4.18 1.36,0 2.04,-0.81 2.04,-2.43 v -3.3 c 0,-4.53 2.04,-6.8 6.12,-6.8 4.27,0 6.41,2.89 6.41,8.66 0,2.84 -0.39,5.39 -1.17,7.66 z" /><path
     style="fill:#f69221;fill-opacity:1"
     id="XMLID_1_"
     class="st2"
     d="m 48.85,86.22 c 0,-6.19 3.16,-9.28 9.48,-9.28 0.84,0 1.68,0.06 2.52,0.17 v 13.54 c 2.88,0 4.31,-2.11 4.31,-6.33 0,-2.06 -0.19,-4.12 -0.58,-6.18 h 4.08 c 0.39,1.8 0.58,3.99 0.58,6.56 0,7.39 -3.48,11.09 -10.43,11.09 -6.64,0.01 -9.96,-3.18 -9.96,-9.57 z m 8.43,4.43 v -8.7 h -0.16 c -2.82,0 -4.23,1.42 -4.23,4.27 0,2.72 1.47,4.2 4.39,4.43 z" /></g></svg>
